<svg xmlns="http://www.w3.org/2000/svg" xmlns:xlink="http://www.w3.org/1999/xlink" id="Layer_1" x="0px" y="0px" viewBox="0 0 115 59" style="enable-background:new 0 0 115 59;" xml:space="preserve">
<g>
	<g>
		<path d="M26,5.1c-1.1-1.5-2.6-2.8-4.4-3.7C19.9,0.5,17.8,0,15.3,0C13,0,10.9,0.4,9,1.2C7.1,2,5.5,3.1,4.2,4.5    C2.9,5.9,1.8,7.6,1.1,9.6c-0.7,2-1.1,4.2-1.1,6.5c0,1.2,0.1,2.4,0.3,3.4c0.2,1,0.5,2,0.8,2.8c0.3,0.8,0.7,1.6,1,2.2    c0.4,0.6,0.7,1.2,1,1.6c0.3,0.4,0.6,0.8,0.8,1c0.2,0.2,0.4,0.4,0.4,0.4c0.1,0.1,0.3,0.2,0.4,0.2c0.1,0,0.3,0.1,0.4,0.1    c0.3,0,0.6-0.1,0.9-0.3c0.3-0.2,0.6-0.4,0.8-0.7c0.2-0.3,0.4-0.6,0.6-1c0.1-0.4,0.2-0.7,0.2-1.1c0-0.3-0.1-0.5-0.2-0.6    c-0.1-0.2-0.3-0.2-0.6-0.1c-0.1-0.1-0.2-0.3-0.5-0.6c-0.3-0.4-0.6-0.9-1-1.6c-0.3-0.7-0.6-1.5-0.9-2.5c-0.3-1-0.4-2.1-0.4-3.4    c0-0.9,0.1-1.9,0.2-2.8c0.1-0.9,0.4-1.9,0.7-2.7c0.3-0.9,0.8-1.7,1.3-2.5c0.6-0.8,1.2-1.4,2.1-2c0.8-0.6,1.8-1,2.9-1.3    C12.4,4.2,13.7,4,15.2,4c1.7,0,3.3,0.3,4.5,1c1.3,0.7,2.3,1.6,3.1,2.8c0.8,1.2,1.4,2.5,1.8,4.1c0.4,1.6,0.6,3.2,0.6,5    c0,1.7-0.1,3.4-0.4,5c-0.2,1.6-0.6,3.1-1,4.5c-0.4,1.4-0.9,2.6-1.5,3.7c-0.6,1.1-1.2,2.1-1.8,2.9c-0.7,0.8-1.3,1.4-2,1.8    c-0.7,0.4-1.4,0.6-2,0.6c-1.1,0-1.8-0.4-2.3-1.1c-0.5-0.7-0.7-1.8-0.7-3.3V10.4c0-0.6-0.3-1.2-0.8-1.6c-0.5-0.5-1.2-0.7-2.1-0.7    c-0.4,0-0.7,0.1-1,0.2C9.3,8.6,9.2,8.8,9.2,9c0,0.2,0,0.4,0.1,0.6c0.1,0.2,0.1,0.6,0.1,1.1v20c0,1.4,0.1,2.6,0.4,3.7    c0.2,1.1,0.6,2,1.2,2.7c0.5,0.7,1.2,1.3,2.1,1.7c0.9,0.4,1.9,0.6,3.1,0.6c1,0,2-0.2,3-0.7c1-0.4,2-1.1,3-2c1-0.9,1.9-2,2.8-3.3    c0.9-1.3,1.6-2.8,2.3-4.5c0.7-1.7,1.2-3.6,1.6-5.7c0.4-2.1,0.6-4.4,0.6-6.8c0-2.1-0.3-4.2-0.8-6.1C28,8.4,27.2,6.6,26,5.1z     M65.7,11.3c0.3,0.3,0.6,0.5,1,0.7c0.4,0.2,0.8,0.3,1.2,0.3c0.5,0,0.9-0.1,1.3-0.3c0.4-0.2,0.7-0.4,1-0.7c0.3-0.3,0.5-0.6,0.7-1    c0.2-0.4,0.2-0.8,0.2-1.2c0-0.5-0.1-0.9-0.2-1.3c-0.2-0.4-0.4-0.7-0.7-1c-0.3-0.3-0.6-0.5-1-0.7c-0.4-0.2-0.8-0.2-1.3-0.2    c-0.4,0-0.8,0.1-1.2,0.2c-0.4,0.2-0.7,0.4-1,0.7c-0.3,0.3-0.5,0.6-0.7,1c-0.2,0.4-0.3,0.8-0.3,1.3c0,0.4,0.1,0.9,0.3,1.2    C65.2,10.7,65.4,11,65.7,11.3z M114.8,29.6c-0.1-0.3-0.3-0.5-0.4-0.7c-0.2-0.2-0.4-0.4-0.6-0.5c-0.2-0.1-0.4-0.2-0.6-0.2    c-0.3,0-0.5,0.1-0.7,0.4c-0.2,0.2-0.4,0.6-0.5,1.2c-0.1,0.6-0.3,1.2-0.5,1.9c-0.2,0.7-0.4,1.3-0.7,1.8c-0.3,0.6-0.6,1-1,1.4    c-0.4,0.4-0.8,0.6-1.4,0.6c-0.3,0-0.6-0.1-0.8-0.3c-0.2-0.2-0.3-0.4-0.4-0.7c-0.1-0.3-0.1-0.5-0.2-0.8c0-0.3,0-0.5,0-0.6V22.2    c0-0.6-0.1-1.2-0.2-1.8c-0.1-0.6-0.4-1.2-0.7-1.7c-0.3-0.5-0.8-0.9-1.3-1.3c-0.6-0.3-1.3-0.5-2.2-0.5c-0.7,0-1.3,0.1-1.8,0.4    c-0.6,0.3-1.1,0.6-1.6,1.1c-0.5,0.5-0.9,1-1.4,1.6c-0.4,0.6-0.8,1.3-1.2,2v-2.3c0-0.6-0.3-1.2-0.8-1.6c-0.5-0.5-1.2-0.7-2.1-0.7    c-0.4,0-0.7,0.1-1,0.2c-0.3,0.2-0.4,0.4-0.4,0.6c0,0.2,0,0.4,0.1,0.6c0.1,0.2,0.1,0.6,0.1,1.1v9.2c-0.1,0.2-0.2,0.4-0.2,0.6    c-0.5,1.8-1.2,3.4-2,4.7c-0.8,1.3-1.7,2.5-2.6,3.6V23.9c0-0.6-0.3-1.2-0.8-1.6c-0.5-0.5-1.2-0.7-2.1-0.7c-0.4,0-0.7,0.1-1,0.3    c-0.3,0.2-0.4,0.4-0.4,0.6c0,0.2,0,0.4,0.1,0.6c0.1,0.2,0.1,0.6,0.1,1.1v5.9c-0.1,0.5-0.2,1.1-0.4,1.6c-0.2,0.6-0.4,1.1-0.7,1.6    c-0.3,0.5-0.6,0.9-1,1.2c-0.4,0.3-0.9,0.5-1.4,0.5c-0.9,0-1.7-0.4-2.2-1.1c-0.5-0.7-0.8-1.8-0.8-3.2c0-1.9,0.3-3.5,0.8-4.9    c0.5-1.4,1.2-2.5,2-3.4c0.8-0.9,1.8-1.6,2.8-2c1-0.4,2-0.7,3-0.7c0.3,0,0.5,0,0.8,0.1c0.3,0,0.5,0.1,0.7,0.1    c0.3,0,0.4-0.1,0.5-0.3c0.1-0.2,0.1-0.5,0.1-0.9c0-0.7-0.2-1.2-0.7-1.6c-0.4-0.4-1-0.6-1.7-0.6c-1.6,0-3.2,0.3-4.7,1    c-1.5,0.6-2.8,1.6-4,2.8c-1.2,1.2-2.1,2.7-2.8,4.4c-0.7,1.7-1.1,3.7-1.1,5.9c0,0.5,0,1.1,0.1,1.6c-0.2,0.5-0.3,1-0.6,1.4    c-0.3,0.6-0.6,1-1,1.4c-0.4,0.4-0.8,0.6-1.3,0.6c-0.3,0-0.6-0.1-0.8-0.3c-0.2-0.2-0.3-0.4-0.4-0.7c-0.1-0.3-0.1-0.5-0.2-0.8    c0-0.3,0-0.5,0-0.6V19.8c0-0.6-0.3-1.2-0.8-1.6c-0.5-0.5-1.2-0.7-2.1-0.7c-0.4,0-0.7,0.1-1,0.2c-0.3,0.2-0.4,0.4-0.4,0.6    c0,0.2,0,0.4,0.1,0.6c0.1,0.2,0.1,0.6,0.1,1.1v9.2c-0.1,0.2-0.2,0.4-0.3,0.6c-0.2,0.4-0.3,0.8-0.6,1.2c-0.2,0.4-0.5,0.8-0.9,1.1    c-0.4,0.3-0.8,0.6-1.2,0.9c-0.5,0.3-1,0.4-1.6,0.6c0.1-0.3,0.1-0.6,0.2-0.9c0-0.3,0.1-0.6,0.1-0.9c0-1.2-0.2-2.3-0.5-3.2    c-0.4-0.9-0.8-1.8-1.4-2.6c-0.6-0.8-1.2-1.6-1.8-2.5c-0.7-0.8-1.3-1.8-1.9-2.9c0-0.1,0.1-0.2,0.2-0.5c0.1-0.2,0.3-0.5,0.4-0.9    c0.2-0.3,0.3-0.7,0.4-1.1c0.1-0.4,0.2-0.8,0.2-1.2c0-0.7-0.2-1.3-0.5-1.7c-0.3-0.4-0.8-0.6-1.4-0.6c-0.4,0-0.8,0.1-1.3,0.4    c-0.5,0.3-1,0.6-1.5,1c-0.5,0.4-0.9,0.9-1.2,1.3c-0.3,0.5-0.5,1-0.5,1.4c0,0.4,0.1,0.9,0.2,1.3c0.2,0.4,0.4,0.8,0.6,1.2    c-0.5,1.4-1,2.8-1.5,4.2c-0.4,1.1-0.7,2-0.9,3c-0.1,0.2-0.1,0.3-0.2,0.5c-0.2,0.8-0.4,1.6-0.7,2.4c0,0.1-0.1,0.2-0.1,0.3    c-0.3,0-0.6,0.2-0.8,0.5c-0.3,0.3-0.5,0.7-0.6,1.2c0,0.2,0,0.3,0,0.5c-0.4,0.5-1,0.9-1.6,1.2c-0.7,0.4-1.6,0.6-2.6,0.6    c-0.7,0-1.3-0.1-1.8-0.3c-0.5-0.2-1-0.4-1.4-0.7c-0.4-0.3-0.7-0.6-1-1c-0.3-0.4-0.5-0.8-0.7-1.3c1.3-0.4,2.4-0.9,3.4-1.6    c1-0.7,1.8-1.5,2.4-2.5c0.7-0.9,1.2-1.9,1.5-2.9c0.3-1,0.5-2,0.5-3c0-0.8-0.1-1.5-0.3-2.1c-0.2-0.6-0.5-1.2-0.9-1.7    c-0.4-0.5-0.9-0.8-1.5-1.1c-0.6-0.3-1.3-0.4-2-0.4c-1,0-2,0.3-3,0.9c-1,0.6-1.8,1.4-2.6,2.4c-0.8,1-1.4,2.3-1.8,3.7    c-0.5,1.4-0.7,3-0.7,4.6c0,1.6,0.3,3.1,0.8,4.4c0.5,1.3,1.2,2.4,2.1,3.2c0.9,0.9,1.9,1.5,3,2c1.1,0.5,2.3,0.7,3.5,0.7    c1.3,0,2.4-0.2,3.4-0.5c1-0.3,1.9-0.7,2.6-1.3c0.1-0.1,0.2-0.2,0.3-0.3c0.2,0.2,0.5,0.4,0.9,0.6c0.4,0.3,0.9,0.5,1.4,0.7    c0.5,0.2,1.1,0.4,1.6,0.5c0.6,0.1,1.1,0.2,1.7,0.2c1.1,0,2.1-0.2,2.9-0.5c0.9-0.3,1.6-0.8,2.2-1.3c1.6-0.1,3-0.4,4.1-0.9    c1-0.4,1.8-0.9,2.6-1.4c0,0.4,0.1,0.8,0.2,1.1c0.2,0.6,0.5,1.1,0.9,1.6c0.4,0.4,0.8,0.8,1.4,1.1c0.5,0.3,1.2,0.4,1.9,0.4    c1.1,0,2.1-0.3,3-0.8c0.8-0.5,1.6-1.2,2.2-2c0.1-0.1,0.1-0.1,0.1-0.2c0,0.1,0.1,0.1,0.1,0.2c0.5,0.7,1.2,1.3,2,1.7    c0.8,0.4,1.7,0.6,2.7,0.6c0.9,0,1.7-0.2,2.5-0.5c0.7-0.4,1.3-0.8,1.9-1.3V42c-0.9,0.8-1.7,1.5-2.5,2.3c-0.8,0.7-1.5,1.5-2.1,2.4    c-0.6,0.9-1.1,1.8-1.4,2.8c-0.4,1-0.5,2.2-0.5,3.5c0,0.8,0.1,1.6,0.4,2.3c0.2,0.7,0.6,1.4,1,1.9c0.4,0.5,1,1,1.6,1.3    c0.6,0.3,1.3,0.5,2,0.5c0.7,0,1.3-0.1,2-0.4c0.7-0.3,1.2-0.7,1.8-1.3c0.5-0.6,0.9-1.4,1.2-2.3c0.3-0.9,0.5-2.1,0.5-3.5v-9    c0.7-0.6,1.4-1.3,2.2-2c0.7-0.7,1.4-1.5,2.1-2.5c0.2-0.3,0.4-0.7,0.7-1c0,0.3,0.1,0.5,0.2,0.7c0.2,0.3,0.4,0.5,0.6,0.7    c0.2,0.2,0.5,0.3,0.8,0.3c0.3,0.1,0.6,0.1,0.8,0.1c0.4,0,0.7-0.1,0.9-0.2c0.2-0.1,0.3-0.3,0.4-0.5c0.1-0.2,0.1-0.5,0.2-0.7    c0-0.3,0-0.5,0-0.8V29c0.1-1,0.4-2.1,0.8-3.1c0.4-1,0.9-2,1.4-2.8c0.5-0.8,1.1-1.5,1.6-2c0.5-0.5,1-0.8,1.4-0.8    c0.3,0,0.5,0.1,0.6,0.2c0.1,0.2,0.3,0.4,0.3,0.7c0.1,0.3,0.1,0.6,0.1,0.9c0,0.4,0,0.7,0,1.1V34c0,0.7,0.1,1.3,0.3,1.9    c0.2,0.6,0.5,1.1,0.9,1.6c0.4,0.4,0.8,0.8,1.4,1.1c0.5,0.3,1.2,0.4,1.9,0.4c1.1,0,2.1-0.3,3-0.8c0.8-0.5,1.6-1.2,2.2-2    c0.6-0.8,1.1-1.7,1.5-2.6c0.4-1,0.7-1.9,0.9-2.7c0-0.1,0.1-0.2,0.1-0.2c0-0.1,0-0.1,0-0.1C115,30.1,114.9,29.9,114.8,29.6z     M36.3,28.9c0-0.2,0-0.3,0-0.5c0-0.4,0-0.8,0-1.3c0-0.5,0.1-1.1,0.2-1.7c0.1-0.6,0.2-1.2,0.4-1.8c0.2-0.6,0.4-1.1,0.6-1.6    c0.2-0.5,0.5-0.8,0.9-1.1c0.3-0.3,0.7-0.4,1.1-0.4c0.3,0,0.6,0.2,0.8,0.5c0.2,0.3,0.3,0.8,0.3,1.4c0,0.8-0.1,1.5-0.3,2.3    c-0.2,0.7-0.5,1.4-0.9,2c-0.4,0.6-0.8,1.2-1.4,1.6c-0.5,0.5-1.1,0.9-1.8,1.2C36.4,29.2,36.4,29,36.3,28.9z M56.8,33.2    c-0.2,0.6-0.5,1-0.8,1.4c-0.4,0-0.9-0.1-1.5-0.2c-0.5-0.1-1.1-0.3-1.7-0.6c-0.6-0.2-1.1-0.5-1.7-0.7c-0.2-0.1-0.3-0.2-0.5-0.2    c0.2-0.5,0.4-1,0.5-1.6c0.2-0.6,0.3-1.2,0.3-1.7c0.3-0.9,0.5-1.8,0.8-2.6c0.3-1,0.7-2,1.1-3c0.5,0.5,0.9,0.9,1.4,1.5    c0.5,0.5,0.9,1.1,1.2,1.7c0.4,0.6,0.7,1.2,0.9,1.9c0.2,0.7,0.3,1.5,0.3,2.3C57.2,32,57,32.6,56.8,33.2z M83.9,51.6    c0,0.3,0,0.6,0,1.1c0,0.5,0,0.9-0.1,1.4c-0.1,0.5-0.2,0.8-0.4,1.2c-0.2,0.3-0.5,0.5-1,0.5c-0.4,0-0.8-0.3-1-0.8    c-0.2-0.6-0.4-1.2-0.4-2.1c0-1.6,0.3-2.9,0.8-4c0.5-1.1,1.2-2,2.1-2.9V51.6z M7,51.4h1.6V45H7V51.4z M14.2,49l-2.6-4.1H10v6.4h1.6    v-4.1l2.6,4.1h1.6v-6.4h-1.6V49z M21.2,45.4c-0.5-0.3-1.1-0.4-1.8-0.4h-2.3v6.4h2.3c0.7,0,1.3-0.1,1.8-0.4c0.5-0.3,1-0.7,1.3-1.1    c0.3-0.5,0.5-1,0.5-1.7c0-0.6-0.2-1.2-0.5-1.7C22.2,46,21.7,45.6,21.2,45.4z M20.8,49.6c-0.3,0.4-0.8,0.5-1.4,0.5h-0.7v-4h0.7    c0.6,0,1.1,0.2,1.4,0.5c0.3,0.4,0.5,0.9,0.5,1.5C21.3,48.8,21.2,49.3,20.8,49.6z M27.7,48.8c0,0.4-0.1,0.7-0.3,0.9    C27.2,49.9,27,50,26.6,50c-0.4,0-0.6-0.1-0.8-0.3c-0.2-0.2-0.3-0.5-0.3-0.9V45h-1.6v3.8c0,0.6,0.1,1.1,0.4,1.5    c0.2,0.4,0.6,0.7,1,0.9c0.4,0.2,0.9,0.3,1.3,0.3c0.5,0,0.9-0.1,1.3-0.3c0.4-0.2,0.8-0.5,1-0.9c0.3-0.4,0.4-0.9,0.4-1.5V45h-1.6    V48.8z M34.4,48c-0.3-0.1-0.6-0.2-1-0.3c-0.3-0.1-0.5-0.1-0.7-0.2c-0.2-0.1-0.3-0.2-0.4-0.3c-0.1-0.1-0.2-0.3-0.2-0.4    c0-0.2,0.1-0.4,0.2-0.5c0.1-0.1,0.3-0.2,0.5-0.2c0.2,0,0.3,0.1,0.5,0.2c0.1,0.1,0.2,0.3,0.2,0.5h1.7c0-0.7-0.2-1.2-0.7-1.5    c-0.4-0.3-1-0.5-1.7-0.5c-0.4,0-0.8,0.1-1.2,0.2c-0.4,0.2-0.6,0.4-0.9,0.7c-0.2,0.3-0.3,0.6-0.3,1c0,0.4,0.1,0.7,0.3,1    c0.2,0.2,0.4,0.4,0.7,0.5c0.3,0.1,0.6,0.2,1,0.3c0.3,0.1,0.5,0.2,0.7,0.2c0.2,0.1,0.3,0.1,0.4,0.3c0.1,0.1,0.2,0.3,0.2,0.4    c0,0.2-0.1,0.4-0.2,0.5c-0.1,0.1-0.3,0.2-0.5,0.2c-0.5,0-0.7-0.3-0.8-0.8h-1.7c0,0.6,0.2,1.1,0.7,1.5c0.4,0.3,1,0.5,1.8,0.5    c0.5,0,0.9-0.1,1.2-0.3c0.4-0.2,0.6-0.4,0.8-0.7c0.2-0.3,0.3-0.6,0.3-1c0-0.4-0.1-0.7-0.3-1C34.9,48.3,34.7,48.1,34.4,48z     M36.2,46.2h1.8v5.2h1.6v-5.2h1.8V45h-5.1V46.2z M46.8,48c0.2-0.4,0.3-0.7,0.3-1.1c0-0.3-0.1-0.7-0.3-1c-0.2-0.3-0.5-0.5-0.8-0.7    c-0.4-0.2-0.8-0.3-1.3-0.3h-2.6v6.4h1.6v-2.5H44l1.5,2.5h1.8l-1.6-2.6C46.2,48.6,46.6,48.4,46.8,48z M45.3,47.5    c-0.1,0.1-0.3,0.2-0.6,0.2h-1v-1.5h1c0.2,0,0.4,0.1,0.6,0.2c0.1,0.1,0.2,0.3,0.2,0.6C45.5,47.2,45.5,47.4,45.3,47.5z M50.8,47.9    L49.6,45h-1.8l2.2,4.4v2.1h1.6v-2.1l2.2-4.4h-1.8L50.8,47.9z M60.4,46.3c0.3,0,0.5,0.1,0.7,0.2c0.2,0.1,0.4,0.3,0.5,0.5h1.9    c-0.2-0.7-0.6-1.2-1.2-1.6c-0.6-0.4-1.2-0.6-1.9-0.6c-0.6,0-1.2,0.1-1.7,0.4c-0.5,0.3-0.9,0.7-1.2,1.2c-0.3,0.5-0.4,1.1-0.4,1.7    c0,0.6,0.1,1.2,0.4,1.7c0.3,0.5,0.7,0.9,1.2,1.2c0.5,0.3,1.1,0.4,1.7,0.4c0.7,0,1.4-0.2,1.9-0.6c0.6-0.4,0.9-0.9,1.2-1.6h-1.9    c-0.1,0.3-0.3,0.4-0.5,0.5C60.9,50,60.7,50,60.4,50c-0.5,0-0.9-0.2-1.2-0.5c-0.3-0.3-0.5-0.8-0.5-1.3c0-0.6,0.2-1,0.5-1.3    C59.4,46.5,59.9,46.3,60.4,46.3z M69.1,45.3c-0.5-0.3-1.1-0.4-1.7-0.4c-0.6,0-1.2,0.1-1.7,0.4c-0.5,0.3-0.9,0.7-1.2,1.2    c-0.3,0.5-0.4,1.1-0.4,1.7c0,0.6,0.1,1.2,0.4,1.7c0.3,0.5,0.7,0.9,1.2,1.2c0.5,0.3,1.1,0.4,1.7,0.4c0.6,0,1.2-0.1,1.7-0.4    c0.5-0.3,0.9-0.7,1.2-1.2c0.3-0.5,0.4-1.1,0.4-1.7c0-0.6-0.1-1.2-0.4-1.7C70,46,69.6,45.6,69.1,45.3z M68.7,49.5    c-0.3,0.3-0.7,0.5-1.2,0.5c-0.5,0-0.9-0.2-1.2-0.5c-0.3-0.3-0.5-0.8-0.5-1.3c0-0.6,0.2-1,0.5-1.3c0.3-0.3,0.7-0.5,1.2-0.5    c0.5,0,0.9,0.2,1.2,0.5c0.3,0.3,0.5,0.8,0.5,1.3C69.1,48.7,69,49.2,68.7,49.5z M72.2,49.7c-0.2,0-0.4,0.1-0.6,0.2    c-0.2,0.2-0.2,0.4-0.2,0.6c0,0.2,0.1,0.4,0.2,0.6c0.2,0.2,0.4,0.2,0.6,0.2c0.2,0,0.5-0.1,0.6-0.2c0.2-0.2,0.2-0.4,0.2-0.6    c0-0.2-0.1-0.4-0.2-0.6C72.7,49.8,72.5,49.7,72.2,49.7z"></path>
	</g>
</g>
</svg>