<svg xmlns="http://www.w3.org/2000/svg" xmlns:xlink="http://www.w3.org/1999/xlink" id="Layer_1" x="0px" y="0px" viewBox="0 0 94 55" style="enable-background:new 0 0 94 55;" xml:space="preserve">
<style type="text/css">
	.st0{fill-rule:evenodd;clip-rule:evenodd;}
</style>
<g>
	<g>
		<path class="st0" d="M94,39.1L93.8,39c-1.9,2.6-4.2,3.8-6.5,3.8c-2.4,0-4.4-1.5-5.1-5.6c-0.1-0.7-0.2-1.5-0.2-2.3    c5.2-0.4,12.6-2.1,11.8-7.2c-0.5-2.9-2.8-4.8-8-4.8c-8.6,0-12.5,6.4-11.5,13c0.8,4.8,4.1,8.1,10.2,8.1    C88.9,43.9,92.1,41.7,94,39.1z M85.8,23.1c1,0,1.8,0.5,2.1,2.4c0.6,3.6-0.6,8.8-5.9,9.1C81.9,29.2,83.1,23.1,85.8,23.1z     M74.3,25.6c-0.5-2.3-2-3.5-3.5-3.5c-2.6,0-2.1,2.8-2.1,3c0.5,2.2,2.6,3.7,5,3.9c-0.8,2.6-3.8,6.4-5.8,8.6l-0.2-0.5l0,0l-0.1-0.3    l0-0.1l0,0L57.3,14.3c-0.3-0.6-0.7-1.2-1-1.7c-2.1-2.7-4.9-3.2-7.8-1.9c-0.5,0.2-1,0.6-1.5,0.9c-0.4,0.3-0.7,0.6-1,1    c-0.5,0.7-0.8,1.5-0.8,2.3c0,0.3,0,0.5,0,0.8c0.2,2,1.9,3.7,3.9,3.9c2.5,0.2,4.7-1.9,4.3-4.6c-0.2-2-1.7-3.8-3.9-4.1    c-0.1-0.1-0.2-0.1-0.2-0.2c2.2-0.8,4.9-0.3,6.4,1.6c3.2,4.2,0.7,8.2-2.4,9.9l8.9,19.5c0.3,0.7,0.5,1.5,0.7,2.1h0.5    C66.5,38.4,75.5,31.2,74.3,25.6z M52.9,42.7L53,28.3c0-0.8,0-1.6-0.2-2.4c-0.5-2.5-1.9-4.2-4.7-4.2c-2.1,0-4,1.1-6.8,5.4    c0.1,0,0.2,0.1,0.2,0.2c1.2-1.7,2.6-3.6,4-4.5c0,4.7-0.1,10.3-0.1,15c0,0.9,0.1,1.8,0.2,2.6c0.4,2.3,1.7,3.5,4.5,3.5    c1.8,0,4.5-1.6,7-5.4l-0.2-0.1C55.7,40.3,54.3,41.7,52.9,42.7z M43.4,46.8c-2.2-1.2-5-0.1-5.8,2.6c-0.7,2.2,0.2,3.7,1.8,5.1    c-2.5-0.2-4.9-1.8-5.4-4.4c-1.1-5.4,3.2-8,7-8.3l0-3.7h0c0-9.3,0-18.6,0-27.9L41,10.1c-3.7,0.5-7.3,1-11.1,1.4l0,0.1    c0,0.5,3-0.5,3.5,2.2c0,0.2,0.1,1.4,0.1,3.6c0,5.8-0.1,11.2-0.1,16.8l-0.1,13.4c0,0.7,0.1,1.4,0.2,2c0.6,3.3,2.9,5,5.9,5.2    c1.7,0.1,2.9-0.2,3.8-0.7c0.5-0.3,0.9-0.6,1.3-1l0,0c0.5-0.5,0.7-1,0.7-1c0-0.1,0.1-0.2,0.1-0.4C46,50,45.1,47.8,43.4,46.8z     M18.3,12.2c-1.5,0-2.7,0.4-3.7,1.1c2-2.2,6-5.8,12.3-8.4l-3.7-1.3c-3.4,2.9-7.4,7.1-9.9,10.8c-0.2,0.3-0.4,0.6-0.6,1l0,0    c-0.1,0.1-0.2,0.3-0.2,0.4c-1,1.8-1.1,4.2,0.5,5.5c1.4,1.1,2.6,0.3,3-0.5c0.8-1.6,0-3.7-1.5-4.9c-0.4-0.3-0.9-0.6-1.4-0.8    c0.8-1.2,1.8-1.9,3.1-1.9c3.1,0,5,3,5.7,6.9c1.3,6.7,1.1,23.5-5.8,23.5c-3.6,0-5.2-3.7-5.8-7c-0.7-3.7-3.6-18.5,3-23.8l0,0    C12.5,6.4,5.9,0.7,0,0c2.1,8.4,10.6,11.8,12.8,12.6C4.1,14.5,0,23.2,1.6,31.5c1.5,7.9,6.8,12.4,14.9,12.4c12,0,16.6-11,14.9-19.5    C30.2,17.5,25.4,12.2,18.3,12.2z M84.4,52.8c-0.3,0-0.5,0-0.7-0.1c-0.2-0.1-0.4-0.2-0.6-0.4c-0.2-0.2-0.3-0.4-0.5-0.6    c-0.1-0.3-0.2-0.6-0.2-0.9c0-0.6,0.2-1.1,0.6-1.5c0.4-0.4,0.8-0.6,1.4-0.6c0.5,0,0.9,0.1,1.3,0.2l0.4-1c-0.5-0.2-1-0.3-1.7-0.3    c-0.4,0-0.8,0.1-1.2,0.2c-0.4,0.2-0.7,0.4-1,0.6c-0.3,0.3-0.5,0.6-0.7,1c-0.2,0.4-0.3,0.8-0.3,1.3c0,0.5,0.1,0.9,0.3,1.3    c0.2,0.4,0.4,0.7,0.7,1c0.3,0.3,0.6,0.5,1,0.6c0.4,0.1,0.8,0.2,1.2,0.2c0.7,0,1.2-0.1,1.6-0.3l-0.4-1    C85.3,52.8,84.9,52.8,84.4,52.8z M62.1,51.6l-2.9-3.8h-0.9v6h1.2V50l2.9,3.8h0.9v-6h-1.2V51.6z M51,47.8l-2.4,6h1.3l0.3-0.9h2.6    l0.3,0.9h1.3l-2.4-6H51z M50.6,51.9l0.9-2.3l0.9,2.3H50.6z M71.6,48.1c-0.5-0.2-1.1-0.4-1.7-0.4h-2v6h2c0.7,0,1.2-0.1,1.7-0.3    c0.5-0.2,0.9-0.6,1.1-1c0.3-0.5,0.4-1,0.4-1.6c0-0.6-0.1-1.2-0.4-1.6C72.4,48.7,72.1,48.4,71.6,48.1z M71.3,52.2    c-0.4,0.3-0.9,0.5-1.4,0.5h-0.8v-3.9h0.8c0.3,0,0.5,0,0.8,0.1c0.2,0.1,0.5,0.2,0.6,0.4c0.2,0.2,0.3,0.4,0.4,0.6    c0.1,0.3,0.2,0.5,0.2,0.9C71.9,51.4,71.7,51.9,71.3,52.2z M92.9,48.5L92.9,48.5c-0.4-0.4-1-0.7-1.6-0.7c-0.6,0-1.2,0.2-1.6,0.7    l0,0l0,0c-0.4,0.4-0.7,1-0.7,1.6c0,0.6,0.2,1.2,0.7,1.6l0,0l0,0c0.4,0.4,1,0.7,1.6,0.7c0.6,0,1.2-0.2,1.6-0.7l0,0l0,0    c0.4-0.4,0.7-1,0.7-1.6C93.6,49.5,93.3,48.9,92.9,48.5L92.9,48.5z M92.2,50.9L92.2,50.9c-0.2,0.2-0.5,0.4-0.8,0.4    c-0.3,0-0.6-0.1-0.8-0.4l0,0c-0.2-0.2-0.3-0.5-0.3-0.8c0-0.3,0.1-0.6,0.3-0.8l0,0c0.2-0.2,0.5-0.3,0.8-0.3c0.3,0,0.6,0.1,0.8,0.3    l0,0c0.2,0.2,0.3,0.5,0.3,0.8C92.6,50.4,92.4,50.7,92.2,50.9z M91.4,52.7c-0.4,0-0.7,0.3-0.7,0.7S91,54,91.4,54    c0.4,0,0.7-0.3,0.7-0.7S91.7,52.7,91.4,52.7z"></path>
	</g>
</g>
</svg>