<svg xmlns="http://www.w3.org/2000/svg" xmlns:xlink="http://www.w3.org/1999/xlink" id="Layer_1" x="0px" y="0px" viewBox="0 0 112 50" style="enable-background:new 0 0 112 50;" xml:space="preserve">
<g>
	<g>
		<path d="M26.4,13.9c-1.5-1.2-4-1.6-5.6-0.9c-1.8,0.8-3.5,1.4-7.7,7.2v-7.6L0,14.9v0.4c2.4,0.8,3.1,1.6,3.1,3.5V32    c0,2.8-0.1,5.1-2.3,5.7v0.4h14.7v-0.4c-2.1-0.5-2.4-2.7-2.4-5.7V21.2c2.4-3.4,4.3-3.7,4.3-3c0,1.2,0.8,2.4,1.9,3.4    c2.3,1.8,5.7,1.6,7.7-0.5C29,19,28.7,15.7,26.4,13.9z M44.3,12.6c-10.5,0-15.1,5.8-15.1,13c0,7.1,4.6,13,15.1,13    c10.5,0,15.1-5.9,15.1-13C59.5,18.5,54.8,12.6,44.3,12.6z M44.3,38.1c-3.2,0-3.3-2.7-3.3-12.5c0-9.8,0.1-12.5,3.3-12.5    c3.2,0,3.2,2.7,3.2,12.5C47.6,35.4,47.5,38.1,44.3,38.1z M77.6,23l-5.9-3.4c-5.1-3-3.3-6.5,0.5-6.5c3.4,0,8,1.7,9,6.6h0.5v-5.5    c0,0-2.8-1.5-9.6-1.5c-6.7,0-8.9,2.6-8.9,2.6c-3.6,3.7-2.1,9,3.4,12.4l5.9,3.3c4.5,2.7,3.5,7.2-0.6,7.2c-3.9,0-8.7-3.4-9.9-8.4    h-0.5v7.1c0,0,3.3,1.8,10.4,1.8c6.8,0,9-2.9,9-2.9C84.3,32.1,82.9,26,77.6,23z M112,2.7L102.5,0L89.4,8.8h4.8L112,2.7z M99.8,12.6    c-7.2,0-14.8,3.8-14.8,13.1c0,7.3,6.2,12.9,13.9,12.9c7.3,0,11.6-3.8,12.4-7.9l-0.5-0.1c-1.2,4.6-5.1,6.2-8,5.6    c-3.9-0.8-6.7-3-6.7-11.2h16C111.9,14.9,106,12.6,99.8,12.6z M96,24.6c0-5.2,1.3-11.5,4-11.5c2.6,0,3.4,4.7,3.4,11.5H96z M20,46.6    c0.9-0.3,1.4-0.8,1.4-1.5c0-0.5-0.2-0.9-0.6-1.2c-0.4-0.3-1-0.5-1.7-0.5H16v6.5h3.2c0.7,0,1.3-0.2,1.7-0.5    c0.4-0.3,0.6-0.7,0.6-1.2c0-0.4-0.1-0.8-0.4-1.1C20.8,46.9,20.5,46.7,20,46.6z M17.7,44.7h1.1c0.2,0,0.4,0.1,0.6,0.2    c0.2,0.1,0.2,0.3,0.2,0.5c0,0.2-0.1,0.4-0.2,0.5c-0.2,0.1-0.3,0.2-0.6,0.2h-1.1V44.7z M19.6,48.5c-0.2,0.1-0.3,0.2-0.6,0.2h-1.3    v-1.5H19c0.2,0,0.4,0.1,0.6,0.2c0.1,0.1,0.2,0.3,0.2,0.5C19.8,48.2,19.7,48.4,19.6,48.5z M27.3,49.9h4.3v-1.2H29v-1.5h2.2V46H29    v-1.4h2.5v-1.2h-4.3V49.9z M40.5,48.4l-1.7-4.9h-1.8l2.5,6.5h2.1l2.5-6.5h-1.8L40.5,48.4z M49.5,49.9h4.3v-1.2h-2.5v-1.5h2.2V46    h-2.2v-1.4h2.5v-1.2h-4.3V49.9z M64.8,46.5c0.2-0.4,0.4-0.7,0.4-1.1c0-0.5-0.2-1-0.7-1.4c-0.5-0.4-1.1-0.6-1.9-0.6h-2.8v6.5h1.7    v-2.5h0.2l1.6,2.5h2l-1.7-2.6C64.1,47.1,64.5,46.9,64.8,46.5z M63.2,46c-0.2,0.1-0.4,0.2-0.6,0.2h-1.1v-1.6h1.1    c0.3,0,0.5,0.1,0.6,0.2c0.2,0.1,0.2,0.3,0.2,0.6C63.4,45.7,63.3,45.9,63.2,46z M72.8,43.4l-2.4,6.5h1.8l0.4-1.1h2.5l0.4,1.1h1.8    l-2.4-6.5H72.8z M73,47.6l0.8-2.3l0.8,2.3H73z M86,44.8c0.6,0,1,0.2,1.3,0.7h2c-0.2-0.7-0.7-1.2-1.3-1.6c-0.6-0.4-1.3-0.6-2.1-0.6    c-1,0-1.9,0.3-2.6,0.9c-0.7,0.6-1,1.4-1,2.4c0,1,0.3,1.8,1,2.4C84.1,49.7,85,50,86,50c0.5,0,0.9-0.1,1.3-0.2    c0.4-0.2,0.7-0.4,1-0.6c0.6-0.5,0.9-1.1,1.1-1.7v-1.2h-3.8v1.2h2c-0.1,0.3-0.3,0.6-0.5,0.8c-0.3,0.2-0.6,0.3-1,0.3    c-0.6,0-1-0.2-1.4-0.5c-0.3-0.3-0.5-0.8-0.5-1.4c0-0.6,0.2-1,0.5-1.4C85,45,85.4,44.8,86,44.8z M95,49.9h4.3v-1.2h-2.5v-1.5H99V46    h-2.2v-1.4h2.5v-1.2H95V49.9z"></path>
	</g>
</g>
</svg>