<svg xmlns="http://www.w3.org/2000/svg" xmlns:xlink="http://www.w3.org/1999/xlink" id="Layer_1" x="0px" y="0px" viewBox="0 0 121 53" style="enable-background:new 0 0 121 53;" xml:space="preserve">
<g>
	<g>
		<path d="M10.5,25.1c0.7-0.8,1.3-1.6,1.8-2.3c0.1,1.8,0.2,3.2,0.3,4.2c0.1,1,0.3,1.6,0.4,1.8c0.1,0.2,0.4,0.5,0.7,0.8    c0.3,0.3,0.7,0.6,1.1,0.9c0.4,0.3,0.8,0.5,1.2,0.6c0.4,0.1,0.7,0.1,1,0c0.7-0.4,1.4-0.8,2.1-1.4c0.7-0.5,1.4-1.2,2.3-2    c0.9-0.8,1.7-1.9,2.7-3.1c-0.3,1.4-0.6,2.8-0.9,4.2c-0.3,1.4-0.5,2.7-0.7,4c-0.2,1.3-0.4,2.5-0.5,3.7c-0.1,1.2-0.2,2.2-0.2,3.2    c0.2-0.1,0.4-0.2,0.7-0.3c0.3-0.2,0.6-0.3,1-0.5c0.4-0.2,0.8-0.4,1.2-0.6c0.4-0.2,0.8-0.4,1.2-0.6c0.4-0.2,0.7-0.4,1-0.6    c0.3-0.2,0.5-0.3,0.7-0.4c0-3.6,0.2-6.8,0.5-9.7c0.3-2.9,0.7-5.7,1.3-8.2c0.5-2.5,1.1-4.9,1.8-7.1c0.7-2.2,1.4-4.4,2.2-6.6    c-0.2,0-0.4-0.1-0.7-0.1c-0.3,0-0.6-0.1-0.9-0.1c-0.3,0-0.7-0.1-1-0.1c-0.3,0-0.6,0-0.9,0c-0.3,0.6-0.6,1.4-0.9,2.3    c-0.3,1-0.7,2-1,3.2c-0.4,1.2-0.8,2.5-1.2,3.9c-0.4,1.4-0.8,2.9-1.2,4.4c-0.8,1.4-1.7,2.7-2.6,3.9c-0.9,1.1-1.7,2.1-2.5,2.9    c-0.8,0.8-1.4,1.4-2,1.8c-0.5,0.4-0.9,0.6-1,0.6c-0.1,0-0.2-0.2-0.3-0.5C17,26.8,17,26.4,16.9,26c0-0.5-0.1-1-0.1-1.6    c0-0.6,0-1.2,0-1.8c0-0.6,0-1.2,0-1.8c0-0.6,0-1.1,0-1.5c0-1.1,0.1-2.1,0.1-3.2c0.1-1.1,0.2-2.2,0.3-3.2c0.1-1,0.2-2,0.4-2.9    C17.8,9,18,8.2,18.1,7.5c0.1-0.7,0.2-1.3,0.3-1.8c0.1-0.5,0.1-0.7,0.2-0.8c-0.1-0.1-0.3-0.3-0.5-0.6c-0.2-0.3-0.5-0.6-0.9-0.9    c-0.3-0.4-0.7-0.7-1-1.1c-0.4-0.4-0.7-0.7-1-1.1c-0.3-0.3-0.6-0.6-0.8-0.8C14,0.1,13.9,0,13.8,0c-0.4,3-0.7,5.8-0.9,8.3    c-0.2,2.5-0.4,4.8-0.5,6.8c-0.2-0.2-0.3-0.3-0.5-0.5c-0.2-0.2-0.4-0.3-0.5-0.5c-1.8,4.3-3.6,7.9-5.6,11c-2,3-3.9,5.4-5.8,7    c0.1,0.2,0.3,0.4,0.5,0.6c0.2,0.2,0.4,0.4,0.6,0.6c0.2,0.2,0.4,0.4,0.6,0.6c0.2,0.2,0.3,0.3,0.5,0.5c0.2-0.2,0.6-0.5,1-1    c0.4-0.4,1-1,1.5-1.6c0.6-0.6,1.2-1.3,1.8-2c0.7-0.7,1.3-1.5,2-2.3C9.2,26.7,9.9,25.9,10.5,25.1z M36.8,17.4    c0.2,0.2,0.5,0.3,0.8,0.5c0.3,0.2,0.6,0.3,1,0.4c0.3,0.1,0.6,0.2,0.8,0.2c0.1,0,0.2-0.1,0.3-0.2c0.1-0.2,0.3-0.4,0.4-0.6    c0.1-0.2,0.3-0.5,0.4-0.8c0.1-0.3,0.3-0.6,0.4-0.8c0.1-0.3,0.2-0.5,0.3-0.7c0.1-0.2,0.1-0.3,0.1-0.4c0-0.1-0.1-0.2-0.3-0.4    c-0.2-0.2-0.5-0.4-0.8-0.6c-0.3-0.2-0.6-0.4-1-0.5c-0.3-0.1-0.6-0.2-0.9-0.2c-0.1,0-0.3,0.2-0.5,0.4c-0.2,0.3-0.4,0.7-0.6,1.1    c-0.2,0.4-0.4,0.8-0.5,1.3c-0.2,0.4-0.2,0.8-0.2,1.1C36.5,17.2,36.6,17.3,36.8,17.4z M61.3,17.4c0.2,0.2,0.5,0.3,0.8,0.5    c0.3,0.2,0.6,0.3,1,0.4c0.3,0.1,0.6,0.2,0.8,0.2c0.1,0,0.2-0.1,0.3-0.2c0.1-0.2,0.3-0.4,0.4-0.6c0.1-0.2,0.3-0.5,0.4-0.8    c0.1-0.3,0.3-0.6,0.4-0.8c0.1-0.3,0.2-0.5,0.3-0.7c0.1-0.2,0.1-0.3,0.1-0.4c0-0.1-0.1-0.2-0.3-0.4c-0.2-0.2-0.5-0.4-0.8-0.6    c-0.3-0.2-0.6-0.4-1-0.5c-0.3-0.1-0.6-0.2-0.9-0.2c-0.1,0-0.3,0.2-0.5,0.4c-0.2,0.3-0.4,0.7-0.6,1.1c-0.2,0.4-0.4,0.8-0.5,1.3    c-0.2,0.4-0.2,0.8-0.2,1.1C60.9,17.2,61,17.3,61.3,17.4z M120.9,6.3c0-0.1-0.1-0.2-0.2-0.3c-0.1-0.1-0.2-0.2-0.4-0.4    c-0.2-0.2-0.4-0.4-0.6-0.6c-0.2-0.2-0.5-0.4-0.7-0.6c-0.3-0.2-0.5-0.3-0.8-0.4c-0.2,0-0.4,0.1-0.8,0.3c-0.4,0.2-0.9,0.5-1.5,0.9    c-0.6,0.4-1.3,1-2,1.6c-0.7,0.7-1.5,1.5-2.3,2.5c-0.8,1-1.6,2.2-2.5,3.5c-0.8,1.3-1.7,2.9-2.5,4.6c-0.4,0.8-0.8,1.8-1.1,2.9    c-0.4,1.1-0.7,2.2-0.9,3.3c-0.3,1.1-0.5,2.2-0.7,3.2c0,0.1,0,0.1,0,0.2c-0.1,0.1-0.1,0.1-0.2,0.2c-0.3,0.3-0.6,0.5-1,0.9    c-0.4,0.3-0.7,0.6-1.1,1c-0.4,0.3-0.8,0.6-1.1,0.9c-0.4,0.3-0.7,0.5-0.9,0.6c-0.3,0.2-0.5,0.3-0.6,0.3c-0.1,0-0.1,0-0.1-0.1    c0-0.1,0-0.3,0-0.6c0-0.3,0.1-0.6,0.2-1c0.1-0.4,0.2-0.8,0.4-1.3c0.2-0.5,0.4-1.1,0.7-1.7c0-0.1-0.1-0.3-0.2-0.6    c-0.1-0.3-0.2-0.5-0.4-0.8c-0.2-0.3-0.3-0.5-0.5-0.8c-0.2-0.2-0.3-0.4-0.5-0.5c0,0,0,0-0.1,0c0,0,0,0,0,0    c-0.2,0.4-0.5,0.8-0.9,1.2c-0.4,0.4-0.7,0.8-1,1.1c-0.4,0.4-0.8,0.7-1.2,1.1c-0.5,0.4-0.9,0.7-1.3,1.1c-0.4,0.3-0.8,0.6-1.2,0.9    c-0.4,0.3-0.7,0.5-0.9,0.6c-0.3,0.1-0.5,0.2-0.7,0.2c-0.2,0-0.3-0.1-0.3-0.3c0-0.3,0.2-0.8,0.5-1.5c0.4-0.7,1-1.5,2-2.4    c0.4-0.4,0.8-0.8,1.3-1.2c0.4-0.3,0.9-0.7,1.4-1.1c0.5-0.4,1.1-0.7,1.7-1l0,0c0,0,0,0,0-0.1c-0.1-0.1-0.2-0.2-0.3-0.3    c-0.2-0.1-0.4-0.2-0.6-0.4c-0.2-0.1-0.4-0.2-0.6-0.4c-0.2-0.1-0.4-0.2-0.6-0.2c0,0-0.1,0-0.1,0c0,0,0,0-0.1,0    c-0.7,0.2-1.4,0.5-2,0.8c-0.6,0.4-1.2,0.7-1.7,1c-0.6,0.4-1.1,0.8-1.6,1.3c-1,0.9-1.8,1.8-2.3,2.6c-0.1,0.1-0.1,0.2-0.2,0.3    c-0.1,0.1-0.3,0.3-0.5,0.5c-0.3,0.3-0.6,0.5-1,0.9c-0.4,0.3-0.8,0.6-1.2,1c-0.4,0.3-0.8,0.6-1.2,0.9c-0.4,0.3-0.7,0.5-1,0.7    c-0.3,0.2-0.5,0.3-0.6,0.3c-0.1,0-0.1,0-0.1-0.1c0-0.1,0-0.4,0.1-0.7c0.1-0.3,0.2-0.7,0.4-1.1c0.1-0.4,0.3-0.9,0.5-1.3    c0.2-0.5,0.4-0.9,0.5-1.4c0.2-0.5,0.4-0.9,0.5-1.4c0.2-0.4,0.3-0.8,0.4-1.1c0-0.1,0-0.2,0.1-0.2c0-0.1,0-0.1,0-0.1    c0-0.2-0.1-0.4-0.4-0.7c-0.3-0.3-0.6-0.5-0.9-0.8c-0.3-0.2-0.7-0.5-1-0.6c-0.3-0.2-0.6-0.3-0.8-0.3c-0.1,0-0.3,0.1-0.5,0.2    c-0.2,0.1-0.5,0.3-0.9,0.6c-0.4,0.3-0.9,0.8-1.4,1.4c-0.6,0.6-1.3,1.4-2.2,2.4c0.1-0.4,0.3-0.9,0.4-1.3c0.1-0.4,0.3-0.8,0.5-1.3    c0.1-0.2,0.1-0.3,0-0.4c-0.1-0.1-0.3-0.3-0.6-0.5c-0.3-0.2-0.6-0.4-0.9-0.6c-0.3-0.2-0.6-0.3-0.9-0.5c-0.3-0.1-0.5-0.2-0.6-0.2    c-0.2,0.1-0.4,0.2-0.6,0.3c-0.2,0.1-0.5,0.4-0.9,0.7c-0.4,0.3-0.8,0.8-1.3,1.4c-0.5,0.6-1.2,1.4-2,2.3c0.1-0.4,0.3-0.9,0.4-1.3    c0.2-0.4,0.3-0.8,0.5-1.2c-0.6-0.5-1.2-0.9-1.8-1.3c-0.7-0.4-1.3-0.7-1.8-1c-0.3,0.8-0.7,1.5-1,2.3c-0.3,0.8-0.6,1.6-0.8,2.4    c-0.2,0.7-0.4,1.4-0.6,2c-0.2,0.2-0.5,0.4-0.7,0.6c-0.4,0.3-0.8,0.6-1.2,1c-0.4,0.3-0.8,0.6-1.2,0.9c-0.4,0.3-0.7,0.5-1,0.7    c-0.3,0.2-0.5,0.3-0.6,0.3c-0.1,0-0.1,0-0.1-0.1c0-0.1,0-0.4,0.1-0.7c0.1-0.3,0.2-0.7,0.4-1.1c0.1-0.4,0.3-0.9,0.5-1.3    c0.2-0.5,0.4-0.9,0.5-1.4c0.2-0.5,0.4-0.9,0.5-1.4c0.2-0.4,0.3-0.8,0.4-1.1c0-0.1,0-0.2,0.1-0.2c0-0.1,0-0.1,0-0.1    c0-0.2-0.1-0.4-0.4-0.7c-0.3-0.3-0.6-0.5-0.9-0.8c-0.3-0.2-0.7-0.4-1-0.6c-0.3-0.2-0.5-0.3-0.6-0.3c-0.1,0-0.2,0.2-0.3,0.5    c-0.2,0.4-0.4,0.8-0.6,1.4c-0.2,0.6-0.5,1.2-0.8,2c-0.2,0.6-0.4,1.2-0.6,1.8c0,0,0,0,0,0c-0.2,0.1-0.4,0.3-0.7,0.6    c-0.3,0.3-0.6,0.5-1,0.9c-0.4,0.3-0.8,0.6-1.2,1c-0.4,0.3-0.8,0.6-1.2,0.9c-0.4,0.3-0.7,0.5-1,0.7c-0.3,0.2-0.5,0.3-0.6,0.3    c-0.1,0-0.1,0-0.1-0.1c0-0.1,0-0.4,0.1-0.7c0.1-0.3,0.2-0.7,0.4-1.1c0.1-0.4,0.3-0.9,0.5-1.3c0.2-0.5,0.4-0.9,0.5-1.4    c0.2-0.5,0.4-0.9,0.5-1.4c0.2-0.4,0.3-0.8,0.4-1.1c0-0.1,0-0.2,0.1-0.2c0-0.1,0-0.1,0-0.1c0-0.2-0.1-0.4-0.4-0.7    c-0.3-0.3-0.6-0.5-0.9-0.8c-0.3-0.2-0.7-0.5-1-0.6c-0.3-0.2-0.6-0.3-0.8-0.3c-0.1,0-0.3,0.1-0.6,0.2c-0.3,0.1-0.6,0.4-1,0.7    c-0.4,0.3-0.9,0.8-1.5,1.4c-0.6,0.6-1.3,1.4-2.1,2.3c0.2-0.5,0.3-0.9,0.5-1.3c0.2-0.4,0.3-0.9,0.5-1.3c-0.6-0.5-1.2-0.9-1.9-1.3    c-0.7-0.4-1.3-0.7-1.8-1c-0.3,0.8-0.7,1.5-0.9,2.3c-0.3,0.8-0.6,1.6-0.8,2.4c-0.2,0.6-0.4,1.2-0.5,1.8c0,0,0,0,0,0    c-0.3,0.3-0.6,0.5-1,0.9c-0.4,0.3-0.8,0.6-1.2,1c-0.4,0.3-0.8,0.6-1.2,0.9c-0.4,0.3-0.7,0.5-1,0.7c-0.3,0.2-0.5,0.3-0.6,0.3    c-0.1,0-0.1,0-0.1-0.1c0-0.1,0-0.4,0.1-0.7c0.1-0.3,0.2-0.7,0.4-1.1c0.1-0.4,0.3-0.9,0.5-1.3c0.2-0.5,0.4-0.9,0.5-1.4    c0.2-0.5,0.4-0.9,0.5-1.4c0.2-0.4,0.3-0.8,0.4-1.1c0-0.1,0-0.2,0.1-0.2c0-0.1,0-0.1,0-0.1c0-0.2-0.1-0.4-0.4-0.7    c-0.3-0.3-0.6-0.5-0.9-0.8c-0.3-0.2-0.7-0.4-1-0.6c-0.3-0.2-0.5-0.3-0.6-0.3c-0.1,0-0.2,0.2-0.3,0.5c-0.2,0.4-0.4,0.8-0.6,1.4    c-0.2,0.6-0.5,1.2-0.8,2c-0.3,0.7-0.5,1.5-0.8,2.2c-0.3,0.8-0.5,1.5-0.7,2.3c-0.2,0.7-0.4,1.4-0.5,2c0,0.2,0.1,0.5,0.3,0.7    c0.2,0.2,0.4,0.5,0.7,0.7c0.3,0.2,0.6,0.4,0.9,0.5c0.3,0.1,0.5,0.2,0.7,0.2c0.3,0,0.7-0.1,1.1-0.3c0.4-0.2,0.9-0.5,1.4-0.8    c0.5-0.3,1-0.7,1.6-1.1c0.5-0.4,1.1-0.9,1.6-1.3c0.1-0.1,0.2-0.2,0.3-0.3c-0.1,0.5-0.2,1-0.3,1.3c-0.1,0.4-0.1,0.6-0.1,0.7    c0.2,0.2,0.5,0.5,0.8,0.7c0.3,0.2,0.6,0.5,0.9,0.7c0.3,0.2,0.6,0.4,0.9,0.5c0.3,0.1,0.5,0.2,0.8,0.2c0.2,0,0.3-0.1,0.4-0.2    c0.1-0.1,0.1-0.2,0.2-0.4c0.6-1.5,1.3-2.7,1.9-3.8c0.7-1.1,1.3-2,1.9-2.7c0.6-0.8,1.1-1.4,1.6-1.9c0.5-0.5,0.8-0.9,1.1-1.2l0,0    c-0.2,0.6-0.5,1.2-0.7,1.9c-0.3,0.7-0.5,1.4-0.7,2.1c-0.2,0.7-0.5,1.4-0.7,2.1c-0.2,0.7-0.4,1.3-0.5,1.8c0,0.2,0.1,0.5,0.3,0.7    c0.2,0.2,0.4,0.5,0.7,0.7c0.3,0.2,0.6,0.4,0.9,0.5c0.3,0.1,0.5,0.2,0.7,0.2c0.3,0,0.7-0.1,1.1-0.3c0.4-0.2,0.9-0.5,1.4-0.8    c0.5-0.3,1-0.7,1.6-1.1c0.5-0.4,1.1-0.9,1.6-1.3c0.3-0.3,0.6-0.5,0.8-0.7c0,0.1-0.1,0.2-0.1,0.2c-0.2,0.7-0.4,1.4-0.5,2    c0,0.2,0.1,0.5,0.3,0.7c0.2,0.2,0.4,0.5,0.7,0.7c0.3,0.2,0.6,0.4,0.9,0.5c0.3,0.1,0.5,0.2,0.7,0.2c0.3,0,0.7-0.1,1.1-0.3    c0.4-0.2,0.9-0.5,1.4-0.8c0.5-0.3,1-0.7,1.6-1.1c0.5-0.4,1.1-0.9,1.6-1.3c0,0,0,0,0,0c-0.1,0.4-0.2,0.8-0.2,1    c-0.1,0.4-0.1,0.6-0.1,0.7c0.2,0.2,0.5,0.5,0.8,0.7c0.3,0.2,0.6,0.5,0.9,0.7c0.3,0.2,0.6,0.4,0.9,0.5c0.3,0.1,0.5,0.2,0.8,0.2    c0.3,0,0.5-0.1,0.5-0.4c0.5-1.2,1-2.4,1.6-3.3c0.6-1,1.1-1.9,1.6-2.6c0.5-0.7,1-1.4,1.5-1.9c0.5-0.5,0.9-1,1.2-1.3    c-0.3,0.9-0.6,1.8-0.9,2.7c-0.3,0.9-0.5,1.7-0.7,2.4c-0.2,0.7-0.3,1.3-0.4,1.8c-0.1,0.5-0.1,0.7-0.1,0.8c0.2,0.3,0.5,0.5,0.8,0.7    c0.3,0.2,0.5,0.3,0.8,0.5c0.3,0.1,0.5,0.2,0.7,0.3c0.2,0.1,0.4,0.1,0.6,0.1c0.3,0,0.5-0.1,0.6-0.4c0.6-1.5,1.3-2.8,1.9-3.9    c0.6-1.1,1.2-2,1.8-2.7c0.5-0.7,1-1.3,1.5-1.7c0.4-0.4,0.8-0.8,1-1.1c-0.2,0.6-0.5,1.2-0.7,1.9c-0.3,0.7-0.5,1.4-0.7,2.1    c-0.2,0.7-0.4,1.4-0.6,2.1c-0.2,0.7-0.4,1.3-0.5,1.8c0,0.2,0.1,0.5,0.3,0.7c0.2,0.2,0.4,0.5,0.7,0.7c0.3,0.2,0.6,0.4,0.9,0.5    c0.3,0.1,0.5,0.2,0.7,0.2c0.3,0,0.7-0.1,1.1-0.3c0.4-0.2,0.9-0.5,1.4-0.8c0.5-0.3,1-0.7,1.6-1.1c0.5-0.4,1-0.8,1.5-1.2    c0,0.2-0.1,0.3-0.1,0.5C86.1,30.8,86,31,86,31.1c0,0.3,0.1,0.5,0.2,0.8c0.1,0.3,0.3,0.5,0.5,0.7c0.2,0.2,0.4,0.4,0.6,0.5    c0.2,0.1,0.4,0.2,0.5,0.2c0,0,0.1,0,0.1,0c0,0,0.1,0,0.2,0c0.5-0.2,1.1-0.5,1.8-0.8c0.6-0.4,1.3-0.8,1.9-1.2    c0.6-0.4,1.2-0.9,1.8-1.4c0.6-0.5,1.1-1,1.5-1.4c-0.2,0.5-0.3,0.9-0.4,1.3c-0.1,0.3-0.1,0.6-0.2,0.9c0,0.2,0,0.4,0,0.6    c0,0.1,0,0.3,0,0.4c0,0.3,0.1,0.5,0.2,0.7c0.2,0.2,0.4,0.4,0.6,0.6c0.2,0.2,0.5,0.3,0.8,0.4c0.3,0.1,0.5,0.1,0.8,0.1    c0.3,0,0.7-0.1,1.2-0.3c0.5-0.2,0.9-0.5,1.4-0.8c0.5-0.3,1-0.7,1.6-1.2c0.5-0.4,1.1-0.9,1.6-1.3c0.3-0.3,0.6-0.5,0.9-0.8    c0,0.1,0,0.2,0,0.2c0,0.1,0,0.3,0,0.4c0,0.1,0,0.2,0,0.3c0,0.2,0.2,0.5,0.5,0.9c0.3,0.4,0.6,0.8,1,1.2c0.4,0.4,0.8,0.7,1.3,1    c0.4,0.3,0.9,0.4,1.3,0.4c0.3,0,0.7-0.1,1.1-0.3c0.4-0.2,0.9-0.5,1.4-0.8c0.5-0.3,1-0.7,1.6-1.1c0.5-0.4,1.1-0.9,1.6-1.3    c0.5-0.4,1-0.8,1.4-1.3c0.4-0.4,0.8-0.8,1.1-1c-0.1-0.2-0.3-0.3-0.5-0.5c-0.2-0.2-0.3-0.3-0.4-0.4c-0.2,0.1-0.4,0.3-0.7,0.6    c-0.3,0.3-0.7,0.6-1.1,0.9c-0.4,0.3-0.8,0.7-1.3,1c-0.5,0.3-0.9,0.6-1.3,0.9c-0.4,0.3-0.8,0.5-1.2,0.7c-0.4,0.2-0.6,0.3-0.8,0.3    c-0.1,0-0.2-0.1-0.3-0.2c-0.1-0.1-0.1-0.4-0.1-0.8c0-0.6,0.1-1.5,0.2-2.6c0.1-1.1,0.4-2.3,0.8-3.8c0.8-0.7,1.5-1.4,2.2-2.2    c0.7-0.8,1.3-1.5,1.9-2.1c0.6-0.8,1.2-1.5,1.8-2.2c1.2-1.6,2.2-2.9,3-4.1c0.8-1.2,1.4-2.2,1.8-3c0.4-0.8,0.7-1.5,0.9-2.1    c0.2-0.5,0.2-1,0.2-1.3C121,6.5,121,6.4,120.9,6.3z M118.2,7.8c-0.2,0.5-0.5,1.2-0.9,2c-0.4,0.8-1,1.7-1.6,2.8    c-0.7,1.1-1.5,2.2-2.4,3.5c-0.2,0.3-0.5,0.6-0.7,1c-0.2,0.3-0.5,0.7-0.8,1.1c-0.3,0.4-0.7,0.8-1.1,1.3c0.2-0.5,0.3-0.9,0.5-1.4    c0.2-0.5,0.4-0.9,0.6-1.4c0.8-1.8,1.6-3.4,2.3-4.7c0.7-1.3,1.4-2.4,2-3.2c0.6-0.8,1.1-1.4,1.5-1.8c0.4-0.4,0.7-0.6,0.8-0.6    c0.1,0,0.1,0,0.1,0c0,0,0,0.1,0,0.1C118.5,6.9,118.4,7.2,118.2,7.8z M47.3,6.1h-2.1V4.8H47V3.7h-1.9V2.4h2.1V1.3h-3.6v5.9h3.6V6.1    z M50.2,6.2c-0.2,0-0.3,0-0.4-0.1c-0.1-0.1-0.2-0.2-0.2-0.3h-1.5c0,0.5,0.2,0.9,0.6,1.2c0.4,0.3,0.9,0.4,1.4,0.4    c0.4,0,0.7-0.1,1-0.2C51.5,7,51.8,6.8,52,6.6c0.2-0.2,0.3-0.5,0.3-0.8c0-0.3-0.1-0.6-0.3-0.7c-0.2-0.2-0.4-0.3-0.6-0.4    c-0.2-0.1-0.5-0.2-0.9-0.2c-0.3-0.1-0.6-0.1-0.7-0.2c-0.1-0.1-0.2-0.2-0.2-0.3c0-0.1,0-0.2,0.1-0.3c0.1-0.1,0.2-0.1,0.4-0.1    c0.2,0,0.3,0,0.4,0.1c0.1,0.1,0.2,0.2,0.2,0.3h1.5c0-0.5-0.2-0.9-0.6-1.1c-0.4-0.3-0.8-0.4-1.4-0.4c-0.4,0-0.8,0.1-1.1,0.2    c-0.3,0.1-0.5,0.3-0.7,0.5c-0.2,0.2-0.2,0.5-0.2,0.7c0,0.3,0.1,0.5,0.2,0.7C48.6,4.8,48.8,5,49,5c0.2,0.1,0.5,0.2,0.9,0.2    c0.3,0.1,0.6,0.1,0.7,0.2c0.2,0.1,0.2,0.2,0.2,0.3c0,0.1-0.1,0.2-0.2,0.3C50.6,6.1,50.4,6.2,50.2,6.2z M53.3,5.7    c0,0.6,0.1,1,0.4,1.2C54,7.1,54.4,7.2,55,7.2h0.7V6h-0.5c-0.2,0-0.3,0-0.3-0.1c-0.1-0.1-0.1-0.1-0.1-0.2V3.7h0.9V2.5h-0.9V1.4    h-1.4v1.1h-0.4v1.2h0.4V5.7z M57.1,7.2c0.2,0,0.4-0.1,0.6-0.2c0.2-0.2,0.2-0.3,0.2-0.6c0-0.2-0.1-0.4-0.2-0.6    c-0.2-0.2-0.3-0.2-0.6-0.2c-0.2,0-0.4,0.1-0.6,0.2c-0.2,0.2-0.2,0.3-0.2,0.6c0,0.2,0.1,0.4,0.2,0.6C56.7,7.2,56.9,7.2,57.1,7.2z     M59.5,7.2H61v-6h-2.5v1.3h1V7.2z M64.2,5c0.2,0,0.4,0,0.7-0.1c0.2-0.1,0.4-0.2,0.5-0.3c0,0.5-0.1,0.9-0.2,1.1    c-0.1,0.2-0.3,0.3-0.6,0.3c-0.2,0-0.4-0.1-0.5-0.2c-0.1-0.1-0.2-0.3-0.2-0.5h-1.3c0,0.5,0.2,1,0.5,1.3c0.3,0.4,0.8,0.5,1.5,0.5    c0.6,0,1-0.1,1.3-0.4c0.3-0.2,0.5-0.6,0.7-1c0.1-0.4,0.2-1,0.2-1.7c0-0.7-0.1-1.3-0.2-1.7c-0.1-0.5-0.4-0.8-0.7-1.1    C65.4,1.1,65,1,64.4,1c-0.7,0-1.2,0.2-1.5,0.6c-0.4,0.4-0.6,0.9-0.6,1.5c0,0.7,0.2,1.1,0.5,1.5C63.2,4.8,63.6,5,64.2,5z M63.9,2.4    c0.1-0.2,0.3-0.2,0.6-0.2c0.3,0,0.4,0.1,0.6,0.2c0.1,0.1,0.2,0.4,0.2,0.6c0,0.2-0.1,0.4-0.2,0.6c-0.1,0.1-0.3,0.2-0.6,0.2    c-0.3,0-0.5-0.1-0.6-0.2c-0.1-0.2-0.2-0.3-0.2-0.6C63.7,2.7,63.7,2.6,63.9,2.4z M67.8,4.5c-0.2,0.3-0.2,0.6-0.2,0.9    c0,0.4,0.1,0.7,0.3,1c0.2,0.3,0.5,0.5,0.8,0.7c0.3,0.2,0.7,0.2,1.2,0.2c0.4,0,0.8-0.1,1.2-0.2c0.3-0.2,0.6-0.4,0.8-0.7    c0.2-0.3,0.3-0.6,0.3-1c0-0.4-0.1-0.7-0.2-0.9c-0.2-0.3-0.4-0.5-0.7-0.6c0.2-0.1,0.4-0.3,0.6-0.5C71.9,3.1,72,2.9,72,2.6    c0-0.3-0.1-0.6-0.2-0.8c-0.2-0.3-0.4-0.5-0.7-0.6c-0.3-0.2-0.7-0.2-1.2-0.2c-0.5,0-0.9,0.1-1.2,0.2c-0.3,0.2-0.6,0.4-0.7,0.6    c-0.2,0.3-0.2,0.5-0.2,0.8c0,0.3,0.1,0.6,0.2,0.8c0.1,0.2,0.3,0.4,0.6,0.5C68.2,4,68,4.2,67.8,4.5z M69.3,2.3    c0.1-0.1,0.3-0.2,0.5-0.2c0.2,0,0.4,0.1,0.5,0.2c0.1,0.1,0.2,0.3,0.2,0.5c0,0.2-0.1,0.4-0.2,0.5c-0.1,0.1-0.3,0.2-0.5,0.2    c-0.2,0-0.4-0.1-0.5-0.2c-0.1-0.1-0.2-0.3-0.2-0.5C69.1,2.6,69.2,2.4,69.3,2.3z M69.2,4.7c0.2-0.1,0.4-0.2,0.6-0.2    c0.3,0,0.5,0.1,0.6,0.2c0.1,0.2,0.2,0.3,0.2,0.6c0,0.2-0.1,0.4-0.2,0.6c-0.1,0.2-0.3,0.2-0.6,0.2c-0.3,0-0.5-0.1-0.6-0.2    C69,5.8,69,5.6,69,5.3C69,5.1,69,4.9,69.2,4.7z M75.4,7.2c0.4,0,0.8-0.1,1.1-0.3c0.3-0.2,0.6-0.4,0.7-0.7c0.2-0.3,0.3-0.7,0.3-1.1    c0-0.4-0.1-0.8-0.2-1.1c-0.2-0.3-0.4-0.5-0.7-0.7c-0.3-0.2-0.6-0.2-1-0.2c-0.2,0-0.5,0-0.7,0.1c-0.2,0.1-0.4,0.2-0.6,0.4    c0-1.1,0.3-1.6,0.9-1.6c0.4,0,0.6,0.2,0.7,0.6h1.3c-0.1-0.5-0.3-0.9-0.6-1.2C76.4,1.1,75.9,1,75.3,1c-0.8,0-1.3,0.3-1.7,0.8    c-0.4,0.5-0.5,1.3-0.5,2.4c0,1.1,0.2,1.9,0.6,2.4C74,7,74.6,7.2,75.4,7.2z M74.7,4.6c0.1-0.1,0.3-0.2,0.6-0.2    c0.3,0,0.5,0.1,0.6,0.2C76,4.8,76.1,5,76.1,5.2c0,0.3-0.1,0.5-0.2,0.6c-0.1,0.2-0.3,0.2-0.6,0.2c-0.2,0-0.4-0.1-0.6-0.2    c-0.2-0.2-0.2-0.4-0.2-0.6C74.5,5,74.5,4.8,74.7,4.6z M32.1,53h1.4v-5.6h-1.4V53z M38.3,50.9L36,47.4h-1.4V53H36v-3.5l2.3,3.5h1.4    v-5.6h-1.4V50.9z M44.4,47.7c-0.5-0.2-1-0.3-1.6-0.3h-2V53h2c0.6,0,1.1-0.1,1.6-0.4c0.5-0.2,0.8-0.6,1.1-1    c0.3-0.4,0.4-0.9,0.4-1.4c0-0.5-0.1-1-0.4-1.4C45.2,48.3,44.9,48,44.4,47.7z M44.1,51.5c-0.3,0.3-0.7,0.5-1.2,0.5h-0.6v-3.5h0.6    c0.5,0,0.9,0.2,1.2,0.5c0.3,0.3,0.4,0.7,0.4,1.3C44.5,50.7,44.3,51.1,44.1,51.5z M50,50.7c0,0.3-0.1,0.6-0.3,0.8    c-0.2,0.2-0.4,0.3-0.7,0.3c-0.3,0-0.6-0.1-0.7-0.3c-0.2-0.2-0.2-0.4-0.2-0.8v-3.3h-1.4v3.3c0,0.5,0.1,0.9,0.3,1.3    c0.2,0.3,0.5,0.6,0.8,0.8c0.4,0.2,0.7,0.3,1.1,0.3c0.4,0,0.8-0.1,1.2-0.3c0.4-0.2,0.7-0.4,0.9-0.8c0.2-0.3,0.3-0.8,0.3-1.3v-3.3    H50V50.7z M55.8,50c-0.2-0.1-0.5-0.2-0.9-0.3c-0.2-0.1-0.4-0.1-0.6-0.2c-0.1-0.1-0.3-0.1-0.4-0.2c-0.1-0.1-0.1-0.2-0.1-0.4    c0-0.2,0.1-0.3,0.2-0.4c0.1-0.1,0.3-0.1,0.4-0.1c0.2,0,0.3,0.1,0.4,0.2c0.1,0.1,0.2,0.3,0.2,0.5h1.5c0-0.6-0.2-1-0.6-1.3    c-0.4-0.3-0.9-0.4-1.5-0.4c-0.4,0-0.7,0.1-1,0.2c-0.3,0.1-0.6,0.3-0.7,0.6c-0.2,0.3-0.3,0.6-0.3,0.9c0,0.3,0.1,0.6,0.2,0.8    c0.2,0.2,0.3,0.4,0.6,0.5c0.2,0.1,0.5,0.2,0.9,0.3c0.3,0.1,0.5,0.1,0.6,0.2c0.1,0.1,0.3,0.1,0.3,0.2c0.1,0.1,0.1,0.2,0.1,0.4    c0,0.2-0.1,0.3-0.2,0.4c-0.1,0.1-0.3,0.2-0.5,0.2c-0.4,0-0.6-0.2-0.7-0.7h-1.4c0,0.6,0.2,1,0.6,1.3c0.4,0.3,0.9,0.5,1.6,0.5    c0.4,0,0.8-0.1,1.1-0.2c0.3-0.2,0.6-0.4,0.7-0.6c0.2-0.3,0.3-0.5,0.3-0.9c0-0.3-0.1-0.6-0.2-0.8C56.2,50.3,56,50.1,55.8,50z     M57.3,48.4h1.5V53h1.4v-4.5h1.5v-1h-4.4V48.4z M66.5,50c0.2-0.3,0.3-0.6,0.3-0.9c0-0.3-0.1-0.6-0.2-0.8c-0.2-0.3-0.4-0.5-0.7-0.6    c-0.3-0.2-0.7-0.2-1.1-0.2h-2.2V53h1.4v-2.2H64l1.3,2.2h1.6l-1.4-2.3C66,50.6,66.3,50.3,66.5,50z M65.2,49.6    c-0.1,0.1-0.3,0.2-0.5,0.2h-0.8v-1.3h0.8c0.2,0,0.4,0.1,0.5,0.2c0.1,0.1,0.2,0.3,0.2,0.5C65.4,49.3,65.3,49.5,65.2,49.6z M70,49.9    l-1.1-2.5h-1.5l1.9,3.8V53h1.4v-1.8l1.9-3.8H71L70,49.9z M78.2,48.6c0.2,0,0.5,0,0.6,0.1c0.2,0.1,0.3,0.3,0.4,0.5h1.6    c-0.2-0.6-0.5-1-1-1.4c-0.5-0.3-1-0.5-1.7-0.5c-0.5,0-1,0.1-1.4,0.4c-0.4,0.2-0.8,0.6-1,1c-0.3,0.4-0.4,0.9-0.4,1.5    c0,0.5,0.1,1,0.4,1.5c0.3,0.4,0.6,0.8,1,1c0.4,0.2,0.9,0.4,1.4,0.4c0.6,0,1.2-0.2,1.7-0.5c0.5-0.3,0.8-0.8,1-1.4h-1.6    c-0.1,0.2-0.3,0.4-0.4,0.5c-0.2,0.1-0.4,0.1-0.6,0.1c-0.5,0-0.8-0.1-1.1-0.4c-0.3-0.3-0.4-0.7-0.4-1.2c0-0.5,0.1-0.9,0.4-1.2    C77.4,48.7,77.8,48.6,78.2,48.6z M85.7,47.7c-0.4-0.2-0.9-0.4-1.4-0.4c-0.5,0-1,0.1-1.4,0.4c-0.4,0.2-0.8,0.6-1,1    c-0.3,0.4-0.4,0.9-0.4,1.5c0,0.5,0.1,1,0.4,1.5c0.3,0.4,0.6,0.8,1,1c0.4,0.2,0.9,0.4,1.4,0.4c0.5,0,1-0.1,1.4-0.4    c0.4-0.2,0.8-0.6,1-1c0.3-0.4,0.4-0.9,0.4-1.5c0-0.5-0.1-1-0.4-1.5C86.5,48.3,86.2,47.9,85.7,47.7z M85.4,51.3    c-0.3,0.3-0.6,0.4-1.1,0.4c-0.5,0-0.8-0.1-1.1-0.4c-0.3-0.3-0.4-0.7-0.4-1.2c0-0.5,0.1-0.9,0.4-1.2c0.3-0.3,0.6-0.4,1.1-0.4    c0.4,0,0.8,0.1,1.1,0.4c0.3,0.3,0.4,0.7,0.4,1.2C85.8,50.6,85.6,51,85.4,51.3z M88.4,51.5c-0.2,0-0.4,0.1-0.5,0.2    c-0.1,0.1-0.2,0.3-0.2,0.5c0,0.2,0.1,0.4,0.2,0.5c0.1,0.1,0.3,0.2,0.5,0.2c0.2,0,0.4-0.1,0.5-0.2c0.1-0.1,0.2-0.3,0.2-0.5    c0-0.2-0.1-0.4-0.2-0.5C88.8,51.5,88.7,51.5,88.4,51.5z M102.4,35.7c-2-0.2-4.3-0.3-6.7-0.4c-2.5-0.1-5.1-0.3-8-0.3    c-2.8,0-5.8-0.1-8.9-0.1c-3.1,0-6.3,0-9.5,0.1c-3.2,0.1-6.5,0.2-9.8,0.4c-3.3,0.2-6.6,0.4-9.8,0.7c-3.2,0.3-6.4,0.6-9.5,1    c-3.1,0.3-6,0.8-8.8,1.2c-2.8,0.4-5.4,0.9-7.9,1.3c-4.9,0.9-8.9,1.8-11.7,2.4C9,42.6,7.4,43,7.4,43s0.4-0.1,1.2-0.2    c0.8-0.1,1.9-0.3,3.3-0.5c1.4-0.2,3.1-0.5,5.1-0.8c2-0.3,4.2-0.6,6.7-0.9c2.4-0.3,5.1-0.6,7.9-0.9c2.8-0.3,5.8-0.6,8.8-0.9    c1.5-0.1,3.1-0.3,4.7-0.4c1.6-0.1,3.2-0.2,4.8-0.4c3.2-0.3,6.5-0.4,9.8-0.6c3.3-0.2,6.5-0.3,9.8-0.5c3.2-0.1,6.4-0.2,9.5-0.3    c3.1-0.1,6-0.1,8.9-0.1c2.8-0.1,5.5,0,7.9,0c1.2,0,2.4,0,3.5,0c1.1,0,2.2,0,3.2,0c2,0,3.7,0.1,5.2,0.1c2.9,0,4.5,0,4.5,0    s-1.6-0.2-4.5-0.4C106.1,36,104.4,35.9,102.4,35.7z"></path>
	</g>
</g>
</svg>