<svg xmlns="http://www.w3.org/2000/svg" xmlns:xlink="http://www.w3.org/1999/xlink" id="Layer_1" x="0px" y="0px" viewBox="0 0 106 70" style="enable-background:new 0 0 106 70;" xml:space="preserve">
<g>
	<g>
		<path d="M55.3,28.7c0.5,0,0.9-0.1,1.4-0.2c0.7,0,1.5,0,2.3-0.1c0.2-0.1,0.4-0.3,0.6-0.4c0.2-0.2,0.4-0.3,0.7-0.5    c0.5-0.3,1-0.7,1.5-1c0.2-0.1,0.4-0.3,0.5-0.4c0.1,0,0.2-0.1,0.3-0.1c0.2-0.2,0.5-0.5,0.8-0.8c0,0,0,0,0,0    c0.3-0.3,0.6-0.5,0.8-0.8c1.7-1.3,2.9-2.9,3.7-4.7c0.2-0.4,0.3-0.9,0.5-1.3c0.1-0.5,0.2-0.9,0.3-1.4c0.1-0.5,0.1-0.9,0.1-1.4    c0-0.5,0-0.8,0-1.2c0-1.4-0.3-2.9-0.8-4.2c-0.6-1.3-1.4-2.5-2.4-3.5c0.1-0.5,0.1-1.4-0.6-2.2c-0.9-1.1-2.3-2.3-3.8-3.1    c-1.5-0.8-3.2-1.1-4.3-0.8c-0.4-0.3-0.9-0.5-1.4-0.6C55,0,54.6,0,54.3,0.1c-0.4,0.1-0.9,0.2-1.3,0.3c-0.3,0.1-0.6,0.1-0.9,0.2    c0,0-0.1,0-0.1,0c-0.7,0-1.5,0-2.3,0c-0.4,0-0.7,0-1.1,0.1c-0.5,0.1-0.9,0.2-1.3,0.3c0,0,0.1,0,0.1,0c-0.2,0-0.4,0-0.6,0.1    c-1,0.1-1.9,0.3-2.8,0.7c-1.9,0.9-4.1,2.1-5,3.4c-0.6,0.9-1.1,1.6-1.6,2.4c0,0,0,0-0.1,0.1c-0.1,0.1-0.2,0.2-0.3,0.3c0,0,0,0,0,0    l0,0c-0.1,0.1-0.2,0.3-0.3,0.5c0.1-0.2,0.2-0.3,0.3-0.4L37,7.8c-0.1,0.2-0.2,0.4-0.3,0.5c-0.7,0.9-1.3,2.2-1.7,2.5    c0.3,0.6,0.5-0.3,0.8-1.1c-0.1,0.4-0.2,0.8-0.3,1.3c-0.1,0.5-0.2,0.9-0.3,1.4c0,0.1,0,0.1,0,0.2c0-0.4-0.2-0.7,0.2-1.1    c-0.1-0.2-0.2-0.2-0.4,0.1c-0.1,0.9-0.5,2.6-0.1,2.7c-0.1,0.2-0.1,0.3-0.2,0.5l0.3,0.4c0,0.1,0,0.1-0.1,0.2c0-0.1,0.1-0.1,0.1-0.2    c0.1,1.1,0.3,2.4,0.9,3.1c0.1,0.1,0.2,0.1,0.3,0.1c-0.1,0.3-0.2-0.1-0.4-0.2c0.2,0.8,0.5,1.3,0.9,1.4c-0.1-0.4-0.3-0.8-0.4-1.2    c0.1,0,0.2,0,0.3,0c0.3,0.3,0.6,0.6,0.6,0.8c0.1,0.5,0.2,1,0.3,1.5c0,0,0,0,0,0c0,0,0,0,0,0c0.1,0.4,0.1,0.8,0.2,1.1    c0,0-0.1,0-0.1,0c-0.2-0.5-0.7-1.2-0.8-1.5c0,0.3,0.1,0.7,0.1,1l0.4,0.2c0.1,0.1,0.1,0.2,0,0.3c0,0,0,0,0,0c0,0-0.1,0.1-0.1,0.1    c0,0,0,0,0,0c0,0,0,0.1,0,0.1l0.1,0c0.1,0.1,0.2,0.2,0.3,0.3c0,0,0,0,0.1,0c0,0.5,0,1,0.6,1.8c0,0,0,0,0.1,0    c0.2,0.4,0.5,0.9,0.9,1.3c0.1,0.1,0.5,0.3,0.9,0.4c0,0,0.1,0,0.1,0.1C40.7,26,40.9,26,41,26c0.2,0,0.3,0,0.3,0    c0-0.4-0.4-0.9-0.8-1.5c0,0,0.1,0.1,0.1,0.1l-0.1-0.1c0,0-0.1,0-0.1,0c-0.3-0.5-0.6-0.9-0.8-1.3c0-0.4,0.1-0.6,0.1-0.9    c0-0.5,0.8,0,1,0.1c0-0.5-0.2-1.1-0.5-1.7c0.5,0.6,1,1.1,1.6,1.6l-0.2,0.2c0.6,0.4,0.4,0.8,1.2,1.1l0,0l0,0c0-0.4-0.3-0.6-0.5-1    c1.7,1.3,3.8,2.1,6.1,2.4l3.5,0.4c0.6,0.1,1.1,0.1,1.7,0.1c-0.6,0.3-1.2,0.5-1.8,0.6c0.1,0.6,0.1,1.2,0.6,1.7    C52.9,28.2,53.7,28.7,55.3,28.7z M37.7,22L37.7,22c0.1,0,0.1,0.1,0.1,0.1C37.7,22.1,37.7,22.1,37.7,22z M51.2,29.2    c-0.3,0-0.7-0.1-0.6-0.3l-0.4,0.2l1.2,0.2c-0.2-0.2-0.6-0.4-0.5-0.6l-0.5-0.1C50.9,28.7,51,29,51.2,29.2z M50.9,28.3    c-0.5,0.1,0.7,0,0.3,0.3c0.1,0,0.2,0,0.2,0.1C51.7,28.5,51.4,28.4,50.9,28.3z M51.2,28.6c-0.1,0-0.2,0-0.3,0c0,0,0,0,0,0    L51.2,28.6C51.2,28.6,51.2,28.6,51.2,28.6z M48.5,28.7c0-0.1-0.1-0.1-0.2-0.2C48.3,28.5,48.4,28.6,48.5,28.7z M47.9,27.7    c0.3,0.2,0.5,0.3,0.4,0.5L48,28.1c-0.1,0.1,0.1,0.2,0.3,0.3C48.3,28.2,48.8,28.1,47.9,27.7z M49.6,27.5l-0.2,0l1.2,0.6    C50.5,27.6,50,27.9,49.6,27.5z M36.1,20.9c0,0-0.1-0.1-0.1-0.1C36,20.8,36,20.9,36.1,20.9L36.1,20.9z M35.6,19.5    c0,0.3,0.1,0.7,0.1,1c0.1,0.1,0.1,0.1,0.2,0.2C35.7,20.1,36.1,20.2,35.6,19.5z M37.4,23c-0.4-0.9-0.8-1.7-1.2-2.3l-0.1,0.2    c0.3,0.3,0.4,0.6,0.6,1C36.8,22.2,36.9,22.6,37.4,23z M0,57.5h5.9V35H0V57.5z M19.2,44c1.3,0,2.2,0.5,2.7,1.6h6.4    c-0.5-2-1.6-3.6-3.3-4.6c-1.6-1.1-3.7-1.6-6-1.6c-2.9,0-5.2,0.8-7,2.5c-1.8,1.7-2.7,3.9-2.7,6.7c0,2.8,0.9,5,2.7,6.7    c1.8,1.7,4.1,2.5,7,2.5c2.3,0,4.3-0.6,6-1.7c1.7-1.1,2.8-2.7,3.3-4.6h-6.4c-0.3,0.6-0.7,1-1.1,1.3c-0.4,0.2-1,0.4-1.7,0.4    c-1.2,0-2.1-0.4-2.7-1.2c-0.6-0.8-0.9-1.9-0.9-3.3c0-1.3,0.3-2.4,0.9-3.3C17,44.5,17.9,44,19.2,44z M47.3,41.9    c-1.9-1.7-4.3-2.5-7.2-2.5c-2.9,0-5.3,0.8-7.2,2.5c-1.9,1.7-2.9,3.9-2.9,6.6c0,2.8,1,5,2.9,6.7c2,1.7,4.4,2.5,7.2,2.5    c2.9,0,5.3-0.8,7.2-2.5c1.9-1.7,2.9-3.9,2.9-6.7C50.2,45.7,49.2,43.5,47.3,41.9z M43,51.9c-0.8,0.8-1.7,1.2-2.9,1.2    c-1.1,0-2.1-0.4-2.9-1.2C36.4,51.1,36,50,36,48.5c0-1.5,0.4-2.6,1.2-3.3c0.8-0.8,1.8-1.1,2.9-1.1c1.1,0,2.1,0.4,2.9,1.1    c0.8,0.8,1.2,1.9,1.2,3.3C44.2,50,43.8,51.1,43,51.9z M73,57.5V47c0-2.4-0.7-4.2-2.1-5.6c-1.4-1.4-3.2-2.1-5.4-2.1    c-2.7,0-4.6,0.9-5.9,2.8v-2.6h-5.9v17.9h5.9v-9.7c0-1.2,0.3-2,1-2.7c0.7-0.6,1.6-0.9,2.7-0.9c1.2,0,2.1,0.3,2.7,0.9    c0.7,0.6,1,1.5,1,2.7v9.7H73z M77.7,57.5h5.9V39.6h-5.9V57.5z M80.6,32c-1,0-1.8,0.3-2.5,0.9c-0.7,0.6-1,1.4-1,2.3    c0,0.9,0.3,1.7,1,2.3c0.7,0.6,1.5,0.9,2.5,0.9c1,0,1.8-0.3,2.5-0.9c0.7-0.6,1-1.4,1-2.3c0-0.9-0.3-1.7-1-2.3    C82.4,32.4,81.6,32,80.6,32z M98.5,52.7c-0.4,0.2-1,0.4-1.7,0.4c-1.2,0-2.1-0.4-2.7-1.2c-0.6-0.8-0.9-1.9-0.9-3.3    c0-1.3,0.3-2.4,0.9-3.3c0.6-0.8,1.6-1.2,2.8-1.2c1.3,0,2.2,0.5,2.7,1.6h6.4c-0.5-2-1.6-3.6-3.3-4.6c-1.6-1.1-3.7-1.6-6-1.6    c-2.9,0-5.2,0.8-7,2.5c-1.8,1.7-2.7,3.9-2.7,6.7c0,2.8,0.9,5,2.7,6.7c1.8,1.7,4.1,2.5,7,2.5c2.3,0,4.3-0.6,6-1.7    c1.7-1.1,2.8-2.7,3.3-4.6h-6.4C99.2,52,98.9,52.4,98.5,52.7z M22.2,68.5l-1.4-3.1h-1.4V70h1.2v-2.6l1.1,2.6h0.9l1.1-2.6V70H25    v-4.6h-1.4L22.2,68.5z M29.3,70h3v-0.8h-1.8v-1.1h1.6v-0.8h-1.6v-1h1.8v-0.8h-3V70z M39.8,68.3l-2-2.9h-1.2V70h1.2v-2.9l2,2.9H41    v-4.6h-1.2V68.3z M48.4,67.7c-0.1-0.1-0.3-0.2-0.5-0.2c-0.2-0.1-0.3-0.1-0.5-0.1c-0.2,0-0.3-0.1-0.5-0.1c-0.1,0-0.3-0.1-0.3-0.2    c-0.1-0.1-0.1-0.2-0.1-0.3c0-0.1,0-0.2,0.1-0.3c0.1-0.1,0.2-0.1,0.4-0.1c0.2,0,0.3,0,0.4,0.1c0.1,0.1,0.2,0.2,0.2,0.4h1.3    c0-0.5-0.2-0.8-0.5-1.1c-0.3-0.2-0.8-0.3-1.3-0.3c-0.5,0-1,0.1-1.3,0.4c-0.3,0.3-0.5,0.6-0.5,1c0,0.2,0,0.4,0.1,0.6    c0.1,0.2,0.2,0.3,0.3,0.4c0.1,0.1,0.3,0.2,0.5,0.2c0.2,0.1,0.3,0.1,0.5,0.2c0.2,0,0.3,0.1,0.5,0.1c0.1,0,0.3,0.1,0.3,0.2    c0.1,0.1,0.1,0.2,0.1,0.3c0,0.1,0,0.2-0.1,0.3c-0.1,0.1-0.2,0.1-0.4,0.1c-0.4,0-0.6-0.2-0.6-0.5h-1.3c0,0.5,0.2,0.8,0.5,1.1    C46,69.9,46.4,70,47,70c0.6,0,1-0.1,1.3-0.4c0.3-0.3,0.5-0.6,0.5-1c0-0.2,0-0.4-0.1-0.6C48.6,67.9,48.5,67.8,48.4,67.7z     M57.8,68.6l-0.8-3.2h-1.4l-0.9,3.3l-0.9-3.3h-1.3l1.4,4.6h1.4l0.9-2.9L57,70h1.4l1.4-4.6h-1.3L57.8,68.6z M63.6,70h3v-0.8h-1.8    v-1.1h1.6v-0.8h-1.6v-1h1.8v-0.8h-3V70z M72.1,65.4L70.4,70h1.3l0.3-0.8h1.8L74,70h1.3l-1.7-4.6H72.1z M72.2,68.4l0.6-1.6l0.6,1.6    H72.2z M82.6,67.6c0.2-0.3,0.3-0.5,0.3-0.8c0-0.4-0.2-0.7-0.5-1c-0.3-0.3-0.8-0.4-1.3-0.4h-1.9V70h1.2v-1.8h0.1l1.1,1.8h1.4    l-1.2-1.9C82.1,68,82.4,67.8,82.6,67.6z M81.5,67.2c-0.1,0.1-0.3,0.1-0.4,0.1h-0.7v-1.1H81c0.2,0,0.3,0.1,0.4,0.2    c0.1,0.1,0.2,0.2,0.2,0.4C81.6,67,81.6,67.1,81.5,67.2z"></path>
	</g>
</g>
</svg>